<?xml version="1.0" standalone="no"?>
<!DOCTYPE svg PUBLIC "-//W3C//DTD SVG 20010904//EN"
 "http://www.w3.org/TR/2001/REC-SVG-20010904/DTD/svg10.dtd">
<svg version="1.0" xmlns="http://www.w3.org/2000/svg"
 width="400.000000pt" height="400.000000pt" viewBox="0 0 400.000000 400.000000"
 preserveAspectRatio="xMidYMid meet">
<metadata>
Created by potrace 1.14, written by Peter Selinger 2001-2017
</metadata>
<g transform="translate(0.000000,400.000000) scale(0.100000,-0.100000)"
fill="#000000" stroke="none">
<path d="M0 3031 c0 -961 0 -970 20 -976 23 -7 22 -3 20 -109 -1 -80 -13 -122
-31 -111 -5 4 -9 -20 -9 -59 l0 -65 50 -7 c41 -5 48 -9 39 -21 -7 -7 -9 -16
-6 -20 13 -12 -34 -63 -59 -63 -24 0 -24 0 -22 -97 l3 -97 48 -15 c49 -15 49
-15 42 -51 -11 -60 -12 -75 -4 -80 4 -3 11 -18 14 -33 6 -23 4 -27 -15 -27
-13 0 -38 9 -56 21 l-34 20 1 -165 c0 -186 1 -190 62 -129 47 46 49 81 6 117
-17 14 -27 27 -22 27 19 3 49 -4 60 -13 18 -14 64 -1 57 16 -3 7 -23 22 -45
31 l-40 18 -35 -34 c-24 -23 -33 -28 -28 -15 9 24 67 77 99 91 52 23 65 45 65
107 0 32 -4 58 -10 58 -5 0 -10 7 -10 16 0 10 6 14 14 11 19 -8 28 32 13 58
-7 12 -26 50 -44 84 -18 35 -38 70 -45 78 -12 15 -10 18 34 44 13 7 16 17 11
41 -6 29 -5 31 20 24 35 -8 274 -36 316 -36 l34 0 -6 -46 c-2 -26 -9 -49 -15
-53 -5 -3 -50 -4 -99 0 -48 3 -90 4 -92 2 -3 -2 5 -20 16 -41 12 -20 26 -64
32 -96 16 -84 32 -106 81 -106 29 0 40 -4 40 -15 0 -9 -9 -15 -24 -15 -23 0
-24 -2 -25 -89 -1 -53 2 -92 9 -96 6 -4 10 10 11 37 1 24 5 57 10 73 6 21 7 7
4 -45 l-4 -75 45 -59 c24 -33 44 -62 44 -66 0 -4 -31 -19 -70 -34 -38 -15 -97
-46 -132 -68 l-63 -41 -84 11 c-64 9 -90 17 -109 34 -22 22 -24 22 -20 3 2
-15 -4 -21 -27 -25 -28 -5 -30 -9 -33 -53 l-3 -48 38 3 c37 3 38 2 38 -32 0
-25 -5 -34 -15 -33 -8 1 -24 3 -35 5 -18 3 -20 -3 -23 -58 -3 -61 -3 -61 23
-57 15 3 25 1 25 -6 0 -6 -11 -11 -25 -11 -29 0 -32 -8 -7 -26 15 -12 15 -13
1 -14 -15 0 -17 -27 -18 -265 l-2 -265 2001 0 2000 0 0 534 c0 528 0 534 -20
529 -33 -9 -70 5 -70 27 0 14 9 21 34 26 19 3 39 3 45 -1 7 -3 11 2 11 14 0
21 -26 28 -83 23 -17 -2 -18 6 -16 80 1 46 4 98 7 116 5 33 6 34 49 30 l44 -3
-3 55 -3 55 -40 3 -41 3 2 72 c3 118 -1 110 44 105 l40 -4 0 247 0 246 -35 -3
c-19 -1 -37 1 -39 5 -3 4 -23 6 -45 4 -26 -2 -41 1 -41 8 0 8 -6 7 -17 -2 -10
-9 -18 -10 -20 -3 -2 6 -28 9 -63 8 -33 -1 -60 1 -60 6 0 4 -9 6 -20 3 -12 -3
-20 0 -20 7 0 10 -3 10 -15 0 -11 -9 -19 -10 -27 -2 -19 19 2 34 35 26 18 -4
42 -7 55 -6 12 1 22 -2 22 -6 0 -4 35 -8 78 -9 67 -1 157 -9 157 -13 0 -1 12
-3 28 -4 l27 -2 0 913 0 913 -2000 0 -2000 0 0 -969z m2576 463 c-4 -9 -9 -15
-11 -12 -3 3 -3 13 1 22 4 9 9 15 11 12 3 -3 3 -13 -1 -22z m-529 -406 c25 -9
33 -17 30 -30 -6 -22 11 -24 19 -3 7 17 40 20 49 5 3 -5 19 -8 35 -6 19 2 42
-5 64 -20 19 -13 41 -24 48 -24 20 0 68 -24 68 -33 0 -5 8 -6 18 -3 9 3 23 2
30 -3 10 -6 10 -10 -2 -20 -15 -12 -12 -41 4 -41 5 0 16 7 24 16 15 14 17 14
22 0 3 -9 12 -16 20 -16 8 0 14 -4 14 -10 0 -5 7 -10 15 -10 10 0 15 -11 16
-32 0 -18 3 -27 6 -20 8 21 23 13 23 -14 0 -14 4 -23 10 -19 6 3 10 -5 10 -19
0 -14 6 -50 14 -80 8 -30 12 -64 9 -75 -4 -16 -1 -19 17 -14 13 4 26 0 31 -8
12 -19 11 -86 -2 -110 -8 -17 -7 -23 8 -34 10 -7 15 -17 11 -21 -4 -4 -4 -12
1 -18 15 -20 30 -76 20 -76 -5 0 -9 -4 -9 -10 0 -5 8 -10 18 -10 14 0 15 -2 2
-10 -11 -7 -11 -10 -2 -10 8 0 10 -5 5 -12 -4 -7 -6 -25 -4 -40 1 -16 -1 -28
-6 -28 -9 0 -16 -77 -13 -140 3 -68 -1 -125 -8 -127 -4 -2 -5 -33 -4 -69 3
-53 7 -64 19 -60 10 4 13 1 8 -13 -5 -17 3 -21 72 -33 l78 -14 1 -54 c1 -30
-2 -73 -5 -95 -6 -35 -10 -40 -33 -40 -21 -1 -39 13 -79 58 -28 32 -62 63 -75
69 -14 7 -24 20 -24 32 0 12 -4 17 -8 11 -4 -5 -14 -10 -22 -10 -8 0 -19 -10
-25 -22 -9 -16 -15 -19 -23 -11 -17 17 -45 1 -39 -22 3 -11 1 -18 -3 -15 -5 3
-17 -6 -26 -20 -9 -14 -23 -25 -30 -25 -8 0 -14 -6 -14 -14 0 -8 -13 -20 -30
-28 -16 -7 -30 -16 -30 -20 0 -5 -8 -8 -17 -9 -11 0 -13 -3 -5 -6 20 -8 14
-26 -7 -20 -14 3 -23 -3 -31 -24 -12 -27 -57 -66 -73 -61 -4 1 -26 -7 -49 -19
-53 -27 -219 -35 -290 -14 -27 8 -48 12 -48 10 0 -2 -15 9 -32 26 -18 16 -41
32 -50 35 -10 3 -41 29 -68 57 -41 43 -52 49 -60 37 -6 -9 -10 -10 -10 -3 0 6
5 15 10 18 6 3 10 11 10 17 0 6 -6 5 -16 -3 -13 -11 -17 -10 -25 4 -6 9 -19
17 -29 17 -12 0 -17 5 -14 13 2 7 -16 34 -41 60 -25 26 -45 56 -45 66 0 11 -6
24 -13 28 -7 4 -20 28 -28 53 -13 40 -15 73 -19 230 0 25 -3 70 -6 100 -5 42
-8 50 -16 36 -6 -10 -8 -72 -4 -152 4 -127 4 -134 -14 -134 -25 0 -54 43 -46
68 8 25 -25 156 -54 211 -18 36 -22 60 -21 123 1 43 4 84 7 93 4 10 0 15 -14
15 -25 0 -27 15 -14 149 8 85 29 108 30 34 2 -56 11 -104 24 -120 6 -7 5 -14
-2 -18 -15 -9 -12 -41 5 -55 8 -6 14 -15 13 -18 -2 -18 4 -32 20 -48 46 -47
70 -85 64 -106 -4 -17 -2 -20 11 -15 9 3 18 1 21 -6 3 -7 5 7 3 30 -1 24 1 44
6 46 4 1 13 34 19 72 11 78 18 97 38 103 7 3 10 1 7 -4 -3 -5 1 -22 8 -39 7
-16 14 -24 14 -16 1 11 6 10 21 -4 19 -17 26 -18 98 -6 102 17 115 19 131 20
7 1 11 7 8 14 -9 24 8 40 34 31 13 -4 27 -7 30 -6 4 1 6 -6 5 -16 0 -9 7 -18
17 -20 16 -3 17 -1 8 16 -9 17 -8 21 7 24 13 3 7 11 -25 33 -63 45 -54 54 28
29 20 -6 34 25 19 40 -5 5 -10 18 -10 27 0 12 -16 23 -47 34 -27 9 -55 21 -64
25 -9 5 -44 12 -78 16 -33 3 -61 10 -61 15 0 5 -15 0 -33 -11 -33 -19 -77 -18
-77 3 0 6 -3 7 -6 4 -4 -4 -1 -13 6 -22 11 -13 10 -14 -3 -9 -22 8 -29 34 -12
41 10 3 12 9 7 17 -13 16 -23 62 -15 69 3 4 7 20 8 37 2 17 10 39 19 49 9 10
13 21 10 24 -4 4 1 9 10 13 9 3 13 10 10 15 -3 5 6 20 20 34 15 14 26 30 26
35 0 6 7 10 16 10 8 0 12 -4 9 -10 -3 -5 -1 -10 4 -10 6 0 11 3 11 8 0 13 44
58 65 66 11 4 62 10 113 11 75 3 92 1 92 -11 0 -21 21 -17 55 11 35 29 30 28
72 13z m-1429 -348 c23 0 24 -3 20 -66 -2 -56 0 -67 16 -76 15 -8 21 -8 24 0
6 19 43 62 53 62 5 0 9 -7 9 -15 0 -23 32 -68 39 -56 8 12 52 -8 58 -26 2 -6
-4 -20 -14 -30 -11 -11 -18 -23 -16 -29 7 -22 -13 -138 -24 -142 -10 -3 -13
16 -13 72 0 50 4 76 11 76 8 0 8 5 -1 15 -10 12 -9 15 6 16 11 0 14 3 7 5 -7
3 -22 0 -33 -6 -25 -13 -42 -4 -20 10 13 8 13 10 -1 10 -8 0 -20 -5 -26 -11
-8 -8 -14 -5 -23 11 -9 18 -14 19 -26 9 -10 -8 -18 -9 -22 -3 -4 6 -25 11 -47
12 -32 1 -36 -1 -20 -8 17 -8 15 -9 -10 -7 -31 2 -48 33 -26 47 7 3 13 37 14
74 2 62 4 67 22 62 11 -3 31 -6 43 -6z m448 -77 c-5 -11 -2 -13 11 -9 10 4 14
4 10 0 -7 -8 10 -34 23 -34 5 0 13 14 19 31 9 27 14 30 48 27 21 -2 37 -6 36
-10 -2 -5 -3 -45 -3 -90 0 -95 -12 -125 -36 -93 -12 16 -16 17 -23 6 -5 -8
-16 -11 -26 -8 -9 4 -13 12 -9 18 5 8 -1 10 -19 5 -16 -4 -27 -2 -30 7 -3 9
-7 9 -20 -1 -13 -11 -17 -10 -27 8 -9 16 -8 21 5 26 10 4 15 20 15 53 0 57 9
93 22 85 5 -3 7 -13 4 -21z m-1023 -7 c6 -15 -1 -26 -15 -26 -4 0 -8 9 -8 20
0 23 15 27 23 6z m57 -10 c0 -8 -4 -17 -9 -20 -10 -7 -23 19 -14 28 11 11 23
6 23 -8z m58 -13 c-4 -22 -22 -20 -26 1 -2 10 3 16 13 16 10 0 15 -7 13 -17z
m57 -1 c0 -18 -20 -15 -23 4 -3 10 1 15 10 12 7 -3 13 -10 13 -16z m55 -6 c0
-8 -4 -18 -10 -21 -5 -3 -10 3 -10 14 0 12 5 21 10 21 6 0 10 -6 10 -14z m60
-11 c0 -8 -7 -15 -15 -15 -8 0 -15 7 -15 15 0 8 7 15 15 15 8 0 15 -7 15 -15z
m60 -11 c0 -8 -7 -14 -15 -14 -15 0 -21 21 -9 33 10 9 24 -2 24 -19z m55 -4
c0 -7 -6 -15 -12 -17 -8 -3 -13 4 -13 17 0 13 5 20 13 18 6 -3 12 -11 12 -18z
m58 3 c9 -9 -13 -34 -24 -27 -14 8 -11 34 4 34 8 0 17 -3 20 -7z m1246 -20
c28 -9 51 -21 51 -28 0 -6 -16 -17 -36 -24 -32 -12 -38 -11 -57 7 -22 20 -24
20 -137 9 -24 -2 -40 8 -40 27 0 5 15 6 34 3 18 -3 38 -2 42 3 8 7 24 11 80
19 7 0 35 -6 63 -16z m-292 -34 c0 -29 -2 -30 -14 -13 -15 21 -17 38 -3 29 6
-3 10 -1 10 4 0 6 2 11 3 11 2 0 4 -14 4 -31z m-571 10 c10 -17 -13 -36 -27
-22 -12 12 -4 33 11 33 5 0 12 -5 16 -11z m52 -16 c-5 -25 -28 -28 -28 -4 0
12 6 21 16 21 9 0 14 -7 12 -17z m52 -9 c0 -8 -7 -14 -15 -14 -15 0 -21 21 -9
33 10 9 24 -2 24 -19z m-253 -46 c-3 -7 -5 -2 -5 12 0 14 2 19 5 13 2 -7 2
-19 0 -25z m2283 6 l45 -12 -77 -1 c-73 -1 -97 7 -83 29 6 10 38 5 115 -16z
m-137 -111 c1 -40 5 -73 9 -73 5 0 8 -7 8 -15 0 -8 -6 -15 -14 -15 -8 0 -22
-22 -31 -52 -10 -29 -28 -79 -41 -110 -13 -32 -24 -73 -24 -91 0 -46 -31 -73
-77 -68 -29 3 -11 69 22 81 16 6 24 19 27 44 3 27 1 33 -8 25 -7 -6 -14 -19
-16 -30 -2 -11 -7 -18 -13 -17 -9 3 -10 92 -2 233 3 47 26 107 46 119 5 3 7
15 4 25 -7 26 15 64 33 57 8 -3 21 -9 29 -12 10 -4 15 0 15 12 1 14 5 12 17
-10 9 -18 16 -57 16 -103z m-1213 87 c0 -11 -6 -20 -14 -20 -21 0 -31 21 -15
31 22 14 29 11 29 -11z m-476 -67 c-10 -40 -14 -41 -14 -5 0 18 5 32 10 32 6
0 8 -11 4 -27z m2147 -93 c17 -10 18 -13 5 -25 -8 -8 -20 -15 -26 -15 -18 0
-60 32 -54 41 7 12 51 11 75 -1z m-394 -23 c-6 -20 -27 -19 -27 2 0 14 5 19
15 14 9 -3 14 -10 12 -16z m41 -10 c2 -10 -3 -17 -12 -17 -10 0 -16 9 -16 21
0 24 23 21 28 -4z m89 -4 c6 -17 -16 -26 -31 -14 -7 6 -16 8 -19 5 -8 -8 -28
6 -22 16 7 12 68 6 72 -7z m126 -2 c11 -1 8 -29 -4 -37 -6 -3 -15 -1 -19 6 -4
7 -13 9 -19 5 -7 -4 -18 -2 -26 5 -9 8 -15 8 -20 0 -8 -13 -25 -3 -25 15 0 12
40 14 113 6z m47 -15 c0 -8 -4 -17 -9 -21 -12 -7 -24 12 -16 25 9 15 25 12 25
-4z m36 -24 c-4 -3 -12 0 -19 7 -9 9 -9 14 3 21 11 7 16 5 18 -6 2 -9 1 -18
-2 -22z m47 14 c6 -15 -1 -26 -15 -26 -4 0 -8 9 -8 20 0 23 15 27 23 6z m42
-14 c0 -18 -20 -15 -23 4 -3 10 1 15 10 12 7 -3 13 -10 13 -16z m145 -7 c14
-1 33 -3 43 -4 9 0 17 -7 17 -15 0 -14 -52 -17 -65 -4 -4 4 -13 4 -20 2 -7 -3
-16 0 -20 6 -6 9 -9 9 -15 -1 -7 -10 -12 -10 -23 -1 -8 7 -22 10 -31 6 -11 -4
-16 -1 -16 10 0 14 8 16 53 10 28 -3 63 -7 77 -9z m-3235 -195 c33 -5 100 -12
148 -16 82 -6 89 -9 98 -31 10 -27 10 -112 0 -158 l-6 -30 -75 3 c-41 1 -111
7 -155 12 -44 5 -106 12 -138 15 l-57 6 6 97 c3 53 7 102 9 108 4 12 66 10
170 -6z m796 -81 c57 -6 124 -12 149 -14 25 -1 48 -3 51 -4 4 0 16 -19 27 -42
24 -47 20 -94 -11 -147 -22 -37 -12 -36 -137 -17 -19 3 -86 13 -147 21 -99 14
-113 19 -113 35 0 12 7 19 19 19 22 0 44 23 33 35 -4 5 0 6 9 2 12 -4 18 1 22
19 3 20 -1 27 -20 35 -13 5 -31 9 -39 9 -9 0 -14 11 -14 30 0 27 3 30 34 30
19 0 80 -5 137 -11z m2187 -147 c7 -9 16 -29 19 -43 5 -26 9 -27 97 -37 50 -6
121 -14 159 -17 76 -7 73 -1 60 -125 l-6 -62 -129 7 c-71 4 -141 10 -156 14
-27 7 -27 9 -25 84 1 42 -1 77 -5 77 -15 0 -35 -46 -41 -94 -5 -39 -10 -52
-25 -54 -22 -5 -36 13 -36 46 0 12 -4 22 -10 22 -5 0 -10 -13 -10 -29 0 -17
-3 -32 -7 -34 -9 -5 -218 10 -250 18 -19 5 -23 12 -23 48 0 23 3 65 6 94 l7
52 61 -5 c33 -3 74 -7 90 -9 24 -4 35 2 64 36 19 22 45 44 56 49 25 9 85 -12
104 -38z m-1895 -49 c5 -25 3 -33 -8 -33 -15 0 -22 50 -8 63 8 9 9 8 16 -30z
m-333 -150 c14 -3 36 -6 50 -7 21 -1 24 -6 25 -39 1 -21 -1 -40 -4 -42 -4 -2
-57 1 -119 7 l-112 11 0 32 c0 46 15 56 79 49 31 -3 67 -8 81 -11z m156 -60
c1 -41 -8 -54 -21 -33 -4 6 -10 8 -15 5 -5 -3 -11 -1 -15 5 -3 5 -1 10 6 10
10 0 10 3 1 12 -7 7 -12 20 -12 31 0 14 6 18 28 15 25 -3 27 -7 28 -45z m99
37 c3 -5 -12 -27 -34 -49 -22 -22 -43 -36 -46 -31 -5 8 0 42 11 78 4 14 60 16
69 2z m-815 -85 c0 -31 -2 -33 -32 -29 -18 1 -45 3 -60 3 -24 1 -28 5 -28 29
0 16 2 31 4 33 2 2 29 2 60 1 56 -4 56 -4 56 -37z m2422 -31 c5 -3 9 -22 9
-42 l2 -37 6 40 c3 22 11 40 16 40 6 0 56 -4 113 -9 l102 -8 0 -44 c0 -31 -5
-46 -15 -51 -9 -3 -59 0 -113 6 -53 6 -112 11 -130 11 -29 0 -35 4 -52 46 -28
63 -26 67 17 59 21 -4 41 -9 45 -11z m-2758 -2 c2 -4 0 -14 -5 -22 -8 -13 -10
-13 -19 0 -5 8 -10 18 -10 23 0 10 28 9 34 -1z m1015 -23 c-19 -11 -24 -3 -8
14 8 9 16 11 18 5 2 -6 -3 -14 -10 -19z m-85 -9 c22 -12 25 -16 12 -18 -19 -4
-56 24 -56 42 0 7 3 7 8 1 4 -6 20 -17 36 -25z m2248 5 c32 -4 60 -11 64 -16
3 -5 10 -6 16 -3 13 8 131 6 166 -3 20 -5 23 -11 20 -47 l-3 -41 -93 1 c-64 0
-96 5 -102 13 -6 10 -9 10 -15 1 -7 -11 -49 -9 -158 6 -37 6 -37 6 -32 42 11
61 12 63 47 58 18 -3 59 -8 90 -11z m-1606 -29 c8 -9 21 -16 27 -16 7 0 23
-10 37 -23 29 -26 58 -41 80 -39 10 1 11 0 3 -4 -7 -3 -13 -10 -13 -15 0 -13
28 -11 32 3 3 7 9 8 19 2 21 -13 126 -17 236 -9 52 4 80 -17 85 -63 l3 -32 34
29 c18 16 31 33 27 39 -3 6 0 17 8 24 7 8 17 24 20 36 4 12 13 22 21 22 7 0
15 9 18 20 3 12 14 20 25 20 11 0 22 6 25 13 6 18 37 -10 37 -34 0 -25 -32
-99 -43 -99 -4 0 -5 -4 -2 -10 3 -5 2 -26 -4 -46 -11 -38 -5 -68 11 -58 6 4 5
-4 -2 -16 -6 -12 -9 -24 -6 -28 3 -3 6 0 6 7 0 7 4 10 10 6 5 -3 7 -11 5 -18
-2 -7 -6 -41 -9 -77 -9 -121 -26 -139 -158 -172 -71 -17 -102 -19 -214 -14
-191 9 -288 40 -379 119 -47 41 -116 164 -98 175 11 7 11 47 -2 94 -8 30 16
65 36 53 6 -4 13 2 16 14 3 12 9 21 14 21 15 0 10 30 -6 36 -9 4 -14 17 -13
34 2 28 4 28 50 25 26 -2 55 -11 64 -19z m-536 -12 c0 -2 -8 -19 -17 -39 -17
-36 -33 -32 -33 9 0 13 5 16 16 12 13 -5 15 -2 11 13 -3 14 -1 18 9 14 8 -3
14 -7 14 -9z m-180 -9 c0 -8 -7 -15 -15 -15 -9 0 -12 6 -9 15 4 8 10 15 15 15
5 0 9 -7 9 -15z m98 -12 c2 -7 -1 -13 -6 -13 -6 0 -8 -8 -5 -19 3 -10 0 -22
-6 -25 -6 -4 -11 -13 -11 -19 0 -7 4 -6 10 3 9 13 10 13 10 0 0 -23 -13 -36
-38 -37 -16 -1 -22 2 -18 12 2 7 -2 19 -11 27 -14 11 -15 10 -9 -10 9 -26 -11
-31 -21 -5 -4 11 3 23 20 37 15 12 27 31 27 42 0 16 6 21 27 20 14 -1 28 -7
31 -13z m1908 -149 c-14 -14 -15 -10 -10 33 8 71 18 84 22 30 2 -33 -2 -52
-12 -63z m124 52 c0 -47 -14 -69 -23 -36 -3 11 -13 23 -24 27 -10 5 -19 18
-20 31 -2 19 2 22 32 22 35 0 35 0 35 -44z m-2230 8 c0 -16 -16 -19 -25 -4 -8
13 4 32 16 25 5 -4 9 -13 9 -21z m240 6 c0 -5 -2 -10 -4 -10 -3 0 -8 5 -11 10
-3 6 -1 10 4 10 6 0 11 -4 11 -10z m-165 -10 c8 -13 -20 -24 -41 -16 -20 8 -9
26 16 26 10 0 22 -5 25 -10z m-835 -40 c0 -5 -4 -10 -10 -10 -5 0 -10 5 -10
10 0 6 5 10 10 10 6 0 10 -4 10 -10z m830 -3 c0 -8 -7 -14 -15 -14 -8 0 -15 6
-15 14 0 7 7 13 15 13 8 0 15 -6 15 -13z m2005 -24 c0 -22 5 -29 23 -31 31 -5
29 -38 -3 -46 -40 -10 -96 37 -60 50 8 4 15 17 15 30 0 13 6 24 13 24 7 0 13
-12 12 -27z m144 -28 c6 -3 11 -17 11 -31 0 -21 -5 -24 -35 -24 -31 0 -35 3
-35 25 0 20 5 25 26 25 14 0 23 4 19 10 -3 6 -16 10 -28 10 -20 0 -20 0 -1 14
17 13 20 12 26 -4 4 -10 11 -21 17 -25z m164 -2 c-7 -2 -19 -2 -25 0 -7 3 -2
5 12 5 14 0 19 -2 13 -5z m-53 -29 c0 -2 -7 -4 -15 -4 -8 0 -15 4 -15 10 0 5
7 7 15 4 8 -4 15 -8 15 -10z m-2313 -26 c-3 -8 -6 -5 -6 6 -1 11 2 17 5 13 3
-3 4 -12 1 -19z m-847 -108 c0 -5 -2 -10 -4 -10 -3 0 -8 5 -11 10 -3 6 -1 10
4 10 6 0 11 -4 11 -10z m530 -20 c-19 -13 -30 -13 -30 0 0 6 10 10 23 10 18 0
19 -2 7 -10z m625 0 c3 -5 1 -10 -4 -10 -6 0 -11 5 -11 10 0 6 2 10 4 10 3 0
8 -4 11 -10z m25 -39 c0 -5 -9 -7 -20 -4 -11 3 -20 7 -20 9 0 2 9 4 20 4 11 0
20 -4 20 -9z m2727 -53 c-3 -8 -6 -5 -6 6 -1 11 2 17 5 13 3 -3 4 -12 1 -19z
m-337 -80 c46 -28 23 -35 -24 -7 -20 11 -36 23 -36 25 0 10 28 2 60 -18z
m-3450 -48 c0 -10 -4 -22 -10 -25 -6 -4 -10 7 -10 25 0 18 4 29 10 25 6 -3 10
-15 10 -25z m22 -2 c-9 -9 -12 -7 -12 12 0 19 3 21 12 12 9 -9 9 -15 0 -24z
m3514 14 c-10 -2 -22 0 -28 6 -6 6 0 7 19 4 21 -5 23 -7 9 -10z m-3569 -44
c-2 -13 -4 -5 -4 17 -1 22 1 32 4 23 2 -10 2 -28 0 -40z m2218 -8 c-3 -5 -12
-10 -18 -10 -7 0 -6 4 3 10 19 12 23 12 15 0z m-60 -30 c-3 -5 -12 -10 -18
-10 -7 0 -6 4 3 10 19 12 23 12 15 0z m-360 -510 c3 -5 -1 -10 -9 -10 -9 0
-16 5 -16 10 0 6 4 10 9 10 6 0 13 -4 16 -10z m15 -76 c0 -36 -27 -19 -28 17
-1 25 2 28 14 18 8 -6 14 -22 14 -35z m-57 22 c9 -7 17 -20 17 -29 0 -9 5 -19
11 -23 8 -4 7 -9 -2 -15 -25 -16 -39 -9 -39 19 0 20 -3 23 -10 12 -13 -21 -22
-7 -14 24 7 29 12 31 37 12z"/>
<path d="M2370 2740 c0 -5 7 -10 15 -10 8 0 15 -5 15 -12 0 -6 -3 -8 -7 -5 -3
4 -12 2 -20 -4 -10 -9 -13 -8 -13 0 0 13 -41 5 -50 -10 -3 -4 -18 -11 -33 -14
-15 -4 -33 -15 -40 -25 -6 -9 -16 -17 -22 -17 -5 0 -15 -10 -21 -21 -10 -21
-11 -21 -24 -1 -16 21 -40 26 -40 7 1 -20 30 -55 31 -37 0 8 5 1 11 -15 8 -22
7 -30 -3 -37 -22 -14 -27 -11 -31 18 -5 39 -25 39 -26 0 -1 -19 -5 -54 -10
-78 -16 -75 -14 -146 3 -173 9 -14 16 -27 16 -30 -4 -28 1 -56 9 -51 14 8 59
-27 60 -46 0 -9 9 -24 20 -34 24 -22 25 -38 4 -56 -18 -15 -71 -19 -97 -6 -13
6 -27 0 -53 -23 -27 -23 -31 -32 -20 -36 8 -3 19 -3 25 0 5 4 12 2 15 -3 7
-11 46 -2 46 10 0 5 5 9 10 9 6 0 10 -9 10 -21 0 -11 -4 -17 -10 -14 -5 3 -10
2 -10 -3 0 -5 14 -9 30 -10 20 0 30 4 30 14 0 8 5 14 11 14 6 0 9 -6 6 -14 -4
-10 0 -14 12 -13 15 1 16 4 5 25 -10 21 -9 29 6 55 29 46 11 111 -46 172 -16
17 -29 39 -29 51 -1 11 -5 25 -9 32 -12 20 -9 166 3 170 6 2 11 11 11 20 0 8
3 12 7 9 3 -4 12 2 20 13 14 20 40 29 28 10 -3 -5 -2 -10 3 -10 6 0 12 7 16
15 3 8 9 14 13 14 4 -1 26 6 48 16 56 25 109 30 132 14 35 -26 26 -39 -27 -39
-38 0 -50 -4 -50 -15 0 -8 -5 -15 -12 -15 -20 0 -158 -69 -158 -80 0 -18 31
-11 66 17 26 19 38 23 46 15 8 -8 8 -15 -1 -26 -10 -12 -4 -15 36 -19 26 -2
73 -11 103 -19 30 -9 69 -18 87 -21 31 -6 32 -5 39 38 3 24 12 49 20 56 8 7
13 29 13 59 -1 41 -7 54 -37 84 -19 20 -48 44 -63 53 -16 10 -29 20 -29 24 0
4 -13 10 -30 14 -16 4 -32 11 -35 16 -8 12 -25 12 -25 -1z m180 -191 c0 -16
-15 -9 -34 17 l-19 26 27 -17 c14 -10 26 -21 26 -26z m-110 -74 c0 -8 -7 -15
-15 -15 -8 0 -15 7 -15 15 0 8 7 15 15 15 8 0 15 -7 15 -15z m-245 -425 c-3
-5 -14 -10 -23 -10 -15 0 -15 2 -2 10 20 13 33 13 25 0z"/>
<path d="M2233 2524 c-3 -8 -12 -13 -19 -10 -8 3 -14 1 -14 -4 0 -6 5 -10 11
-10 17 0 49 20 49 30 0 16 -20 11 -27 -6z"/>
<path d="M2122 2197 c-12 -14 -5 -57 9 -57 5 0 8 16 7 35 -1 40 -2 40 -16 22z"/>
<path d="M1880 2071 c0 -10 38 -18 63 -13 9 2 15 8 12 13 -8 12 -75 12 -75 0z"/>
<path d="M2145 1921 c-18 -7 -17 -8 5 -14 14 -3 51 -5 83 -4 51 2 57 1 57 -18
-1 -35 -32 -65 -73 -69 -21 -2 -43 -8 -49 -14 -6 -6 -17 -8 -24 -5 -8 3 -14 0
-14 -6 0 -6 15 -15 33 -20 17 -5 26 -10 20 -10 -7 -1 -13 -5 -13 -10 0 -21 67
10 98 45 17 21 30 39 28 42 -3 2 11 18 31 35 30 26 33 32 20 42 -18 13 -172
17 -202 6z"/>
<path d="M1743 1913 c-7 -3 -13 -11 -13 -18 0 -17 81 -105 97 -105 6 0 14 -6
16 -12 4 -10 6 -10 6 0 1 6 9 12 19 12 9 0 -2 9 -24 19 -41 19 -74 54 -74 78
0 11 25 14 135 14 14 0 16 2 7 8 -14 8 -149 12 -169 4z"/>
<path d="M2640 1821 c0 -5 5 -13 10 -16 6 -3 10 -2 10 4 0 5 -4 13 -10 16 -5
3 -10 2 -10 -4z"/>
<path d="M1890 1790 c0 -5 5 -10 10 -10 6 0 10 5 10 10 0 6 -4 10 -10 10 -5 0
-10 -4 -10 -10z"/>
<path d="M1090 2595 c0 -9 6 -12 15 -9 8 4 15 10 15 15 0 5 -7 9 -15 9 -8 0
-15 -7 -15 -15z"/>
<path d="M1085 2560 c-8 -13 5 -13 25 0 13 8 13 10 -2 10 -9 0 -20 -4 -23 -10z"/>
<path d="M920 1930 c0 -5 7 -10 15 -10 8 0 15 5 15 10 0 6 -7 10 -15 10 -8 0
-15 -4 -15 -10z"/>
<path d="M2220 1192 c0 -5 7 -9 15 -9 8 0 12 4 9 9 -3 4 -9 8 -15 8 -5 0 -9
-4 -9 -8z"/>
<path d="M3932 1538 c3 -7 19 -14 37 -16 24 -3 32 0 29 10 -3 7 -19 14 -37 16
-24 3 -32 0 -29 -10z"/>
<path d="M3960 1280 c8 -5 22 -10 30 -10 13 0 13 1 0 10 -8 5 -22 10 -30 10
-13 0 -13 -1 0 -10z"/>
<path d="M310 1190 c0 -5 7 -10 15 -10 8 0 15 5 15 10 0 6 -7 10 -15 10 -8 0
-15 -4 -15 -10z"/>
<path d="M255 993 c-124 -25 -116 -21 -109 -48 5 -22 3 -25 -22 -25 -49 0 -21
-7 56 -14 44 -3 69 -2 61 3 -10 6 -4 15 25 37 20 16 53 36 73 46 32 14 33 16
11 16 -14 0 -56 -7 -95 -15z"/>
</g>
</svg>
